<?xml version="1.0" standalone="no"?>
<!DOCTYPE svg PUBLIC "-//W3C//DTD SVG 20010904//EN"
 "http://www.w3.org/TR/2001/REC-SVG-20010904/DTD/svg10.dtd">
<svg version="1.0" xmlns="http://www.w3.org/2000/svg"
 width="512.000000pt" height="512.000000pt" viewBox="0 0 512.000000 512.000000"
 preserveAspectRatio="xMidYMid meet">
<metadata>
Created by potrace 1.11, written by Peter Selinger 2001-2013
</metadata>
<g transform="translate(0.000000,512.000000) scale(0.100000,-0.100000)"
fill="#000000" stroke="none">
<path d="M295 5102 c-120 -41 -204 -116 -259 -232 l-31 -65 -2 -2230 c-2
-2220 -2 -2230 18 -2289 39 -113 113 -194 229 -250 l65 -31 2225 -3 c1464 -1
2241 1 2272 8 79 16 140 51 203 115 34 33 71 81 83 107 l22 48 0 2279 c0 2440
3 2286 -44 2369 -39 68 -139 145 -230 175 -45 15 -233 17 -2275 17 -2085 -1
-2229 -2 -2276 -18z"/>
</g>
</svg>
